Coordinates
version=1
nRows=19
nColumns=24
inDegrees=yes

Units are S.I. units (second, meters, Newtons, ...)
Angles are in degrees.

endheader
time	pelvis_tilt	pelvis_list	pelvis_rotation	pelvis_tx	pelvis_ty	pelvis_tz	hip_flexion_r	hip_adduction_r	hip_rotation_r	knee_angle_r	ankle_angle_r	subtalar_angle_r	mtp_angle_r	hip_flexion_l	hip_adduction_l	hip_rotation_l	knee_angle_l	ankle_angle_l	subtalar_angle_l	mtp_angle_l	lumbar_extension	lumbar_bending	lumbar_rotation
      3.04500000	     -2.08906208	     -3.67110450	    -10.87052453	     -0.74717543	      0.90115539	      0.25172915	    -12.71338828	      7.53847261	      8.76699539	    -21.14912338	     24.43927937	     -6.88148003	      0.00000000	     33.40403764	     -5.06149524	     -7.51439063	    -14.88080057	     11.96942567	     -9.59787957	      0.00000000	    -10.61877931	      1.85164976	      2.89686252
      3.05000000	     -2.07334642	     -3.42140412	    -10.81141362	     -0.73874103	      0.90013714	      0.25153285	    -12.83323956	      7.08737938	      8.15405477	    -21.85441594	     24.23213006	     -6.02398884	      0.00000000	     33.56564658	     -4.73328327	     -7.59716171	    -15.85888528	     11.52629474	     -9.98228000	      0.00000000	    -10.48021241	      1.51170434	      2.79518131
      3.05500000	     -2.07866843	     -3.11680898	    -10.73209297	     -0.73026903	      0.89917762	      0.25131942	    -12.87714691	      6.58430379	      7.49230308	    -22.63017572	     23.95826599	     -5.16177514	      0.00000000	     33.76052337	     -4.34547201	     -7.64504886	    -16.87361506	     10.97957329	    -10.39043521	      0.00000000	    -10.29849899	      1.10738904	      2.67685800
      3.06000000	     -2.10487722	     -2.76567258	    -10.63763789	     -0.72181737	      0.89831422	      0.25108845	    -12.83052552	      6.03323012	      6.77509256	    -23.49968886	     23.60691844	     -4.25872454	      0.00000000	     33.98739532	     -3.90904547	     -7.64186938	    -17.91153728	     10.31582015	    -10.80871671	      0.00000000	    -10.08808513	      0.64919429	      2.54385896
      3.06500000	     -2.14137483	     -2.40089428	    -10.52949494	     -0.71342825	      0.89757184	      0.25078024	    -12.69526577	      5.45560326	      5.98791144	    -24.48308863	     23.16284089	     -3.27898405	      0.00000000	     34.23671528	     -3.44464397	     -7.56622025	    -18.96841411	      9.55530258	    -11.28543857	      0.00000000	     -9.87835325	      0.18425502	      2.41813067
      3.07000000	     -2.20677412	     -1.94802139	    -10.41395862	     -0.70499771	      0.89687361	      0.25054506	    -12.46561258	      4.80521901	      5.23186060	    -25.55153356	     22.63320012	     -2.41100163	      0.00000000	     34.54197637	     -2.91019241	     -7.50495244	    -20.07683376	      8.81858283	    -11.69917916	      0.00000000	     -9.60918768	     -0.39661814	      2.23752981
      3.07500000	     -2.28002536	     -1.50450987	    -10.28180433	     -0.69662984	      0.89630328	      0.25022677	    -12.15532024	      4.14901767	      4.42761729	    -26.72833435	     21.98206691	     -1.47546143	      0.00000000	     34.86890783	     -2.36727194	     -7.38885758	    -21.20843741	      8.04006443	    -12.16619789	      0.00000000	     -9.34847059	     -0.95800480	      2.09584996
      3.08000000	     -2.36318716	     -1.01616080	    -10.14971808	     -0.68824174	      0.89580324	      0.24994721	    -11.76819788	      3.45057964	      3.66113309	    -28.00124390	     21.21865801	     -0.62384412	      0.00000000	     35.21699183	     -1.78762575	     -7.27096681	    -22.37321578	      7.32719889	    -12.59706052	      0.00000000	     -9.06664444	     -1.58045815	      1.93225176
      3.08500000	     -2.44988097	     -0.50121858	    -10.02340728	     -0.67983444	      0.89536869	      0.24971281	    -11.30989475	      2.72431596	      2.93584470	    -29.37563336	     20.33901586	      0.15374154	      0.00000000	     35.56864558	     -1.19076041	     -7.16342096	    -23.55555844	      6.70504086	    -12.98424631	      0.00000000	     -8.77436769	     -2.24497308	      1.75753595
      3.09000000	     -2.52558837	      0.00774517	     -9.88956250	     -0.67141399	      0.89502087	      0.24944622	    -10.80457794	      1.99945388	      2.25274655	    -30.83823775	     19.30504803	      0.85773860	      0.00000000	     35.89637436	     -0.59197496	     -7.07070451	    -24.72845487	      6.16727003	    -13.35529997	      0.00000000	     -8.49958559	     -2.89757257	      1.61725015
      3.09500000	     -2.60136056	      0.49797892	     -9.77866325	     -0.66303774	      0.89473810	      0.24913886	    -10.22328314	      1.26980392	      1.59295361	    -32.40884424	     18.16205017	      1.56105845	      0.00000000	     36.20038956	     -0.00596715	     -6.93505225	    -25.87364209	      5.66716674	    -13.78852718	      0.00000000	     -8.24118884	     -3.52380434	      1.52555590
      3.10000000	     -2.65046231	      1.00315228	     -9.67062072	     -0.65461532	      0.89451177	      0.24891079	     -9.61305603	      0.53352205	      1.01274260	    -34.05918335	     16.87410386	      2.08721738	      0.00000000	     36.43875509	      0.58452836	     -6.86806019	    -26.96717764	      5.34967919	    -14.11500302	      0.00000000	     -8.00453453	     -4.18107939	      1.41741001
      3.10500000	     -2.69218237	      1.50270628	     -9.56595137	     -0.64619128	      0.89434657	      0.24866682	     -8.94951600	     -0.20294015	      0.48564477	    -35.78654994	     15.45287263	      2.53627145	      0.00000000	     36.61944016	      1.17661786	     -6.81495523	    -27.97794296	      5.13084533	    -14.44039009	      0.00000000	     -7.77989978	     -4.83465206	      1.33604797
      3.11000000	     -2.71326359	      1.99024288	     -9.47058133	     -0.63780645	      0.89423273	      0.24837035	     -8.24476919	     -0.93556762	      0.01299690	    -37.58657674	     13.91281992	      2.85434718	      0.00000000	     36.73273643	      1.76456397	     -6.78903544	    -28.91143597	      5.04293184	    -14.73965294	      0.00000000	     -7.59393845	     -5.46445465	      1.27842746
      3.11500000	     -2.70220479	      2.46573056	     -9.35593051	     -0.62937668	      0.89424612	      0.24813113	     -7.54621968	     -1.63656498	     -0.38681891	    -39.39673279	     12.19487175	      2.98040973	      0.00000000	     36.74390395	      2.35131896	     -6.79527705	    -29.74009564	      5.12208785	    -14.93572738	      0.00000000	     -7.44126920	     -6.09589505	      1.21563378
      3.12000000	     -2.69349904	      2.94575974	     -9.25810200	     -0.62105361	      0.89424144	      0.24779816	     -6.76701232	     -2.35771610	     -0.75439401	    -41.28953998	     10.45109727	      3.01197168	      0.00000000	     36.71581029	      2.95209839	     -6.81506851	    -30.48487034	      5.31023404	    -15.15278999	      0.00000000	     -7.30609653	     -6.71130461	      1.16370511
      3.12500000	     -2.67930697	      3.41414411	     -9.15460825	     -0.61281757	      0.89427777	      0.24743783	     -5.94266202	     -3.06025314	     -1.07148945	    -43.21489032	      8.64562976	      2.89584514	      0.00000000	     36.63238196	      3.55305381	     -6.85007265	    -31.13881029	      5.61144400	    -15.33991030	      0.00000000	     -7.19421334	     -7.30992141	      1.11109262
      3.13000000	     -2.71683945	      3.90540353	     -9.06199191	     -0.60468697	      0.89428064	      0.24699433	     -4.99575529	     -3.78384172	     -1.33044266	    -45.18474627	      6.83843262	      2.68551674	      0.00000000	     36.56488263	      4.17001745	     -6.93658356	    -31.70292122	      5.94764560	    -15.53564401	      0.00000000	     -7.03454657	     -7.90691973	      1.09331435
      3.13500000	     -2.69405662	      4.35787875	     -8.93662142	     -0.59657952	      0.89443229	      0.24658405	     -4.10973564	     -4.43554333	     -1.53795748	    -47.10178917	      4.95406793	      2.17651946	      0.00000000	     36.37077644	      4.78058753	     -6.98916497	    -32.17703153	      6.45242157	    -15.63062407	      0.00000000	     -6.95802424	     -8.47376524	      1.00569796
